<svg width="400" height="300" viewBox="0 0 400 300" fill="none" xmlns="http://www.w3.org/2000/svg">
  <!-- Background -->
  <rect width="400" height="300" rx="16" fill="url(#gradient)"/>
  
  <!-- Medical Cross -->
  <g transform="translate(200, 150)">
    <rect x="-30" y="-10" width="60" height="20" rx="4" fill="white" opacity="0.9"/>
    <rect x="-10" y="-30" width="20" height="60" rx="4" fill="white" opacity="0.9"/>
  </g>
  
  <!-- Heart Icon -->
  <g transform="translate(100, 80)">
    <path d="M20 35C20 35 5 20 5 12C5 4 12 0 20 0C28 0 35 4 35 12C35 20 20 35 20 35Z" fill="white" opacity="0.8"/>
  </g>
  
  <!-- Stethoscope -->
  <g transform="translate(280, 100)">
    <circle cx="0" cy="20" r="15" stroke="white" stroke-width="3" opacity="0.8" fill="none"/>
    <path d="M0 35 L0 60 L-20 80" stroke="white" stroke-width="3" opacity="0.8" fill="none"/>
    <circle cx="-20" cy="80" r="8" fill="white" opacity="0.8"/>
  </g>
  
  <!-- Pulse Line -->
  <g transform="translate(50, 200)">
    <path d="M0 40 L50 40 L60 20 L70 60 L80 10 L90 50 L100 40 L150 40" stroke="white" stroke-width="3" opacity="0.7" fill="none"/>
  </g>
  
  <!-- Gradient Definition -->
  <defs>
    <linearGradient id="gradient" x1="0%" y1="0%" x2="100%" y2="100%">
      <stop offset="0%" style="stop-color:#3b82f6;stop-opacity:1" />
      <stop offset="100%" style="stop-color:#1e40af;stop-opacity:1" />
    </linearGradient>
  </defs>
</svg>